<svg width="156" height="137" viewBox="0 0 156 137" fill="none" xmlns="http://www.w3.org/2000/svg">
<g clip-path="url(#clip0_0_94)">
<rect width="156" height="137" rx="18" fill="#FEA725"/>
<g filter="url(#filter0_f_0_94)">
<circle cx="18" cy="18" r="28" fill="white" fill-opacity="0.5"/>
</g>
<rect x="52" y="24" width="51" height="51" rx="12" fill="white"/>
<g clip-path="url(#clip1_0_94)">
<path d="M85.8827 45.444L81.5557 41.117C81.2608 40.8224 80.7838 40.8222 80.489 41.1165L69.3444 52.236L70.4105 53.3047L81.0216 42.7175L84.2824 45.9786L73.6955 56.5894L74.7639 57.6556L85.8834 46.5107C86.1775 46.2158 86.1773 45.7384 85.8827 45.444Z" fill="#FEA725"/>
<path d="M87.1659 40.8909L86.1094 39.8343C85.8633 39.5883 85.4814 39.5422 85.1841 39.7228L81.5363 41.9367L82.3194 43.227L85.4608 41.3203L85.6797 41.5394L83.7733 44.6808L85.0636 45.4639L87.2774 41.8161C87.458 41.5188 87.412 41.1367 87.1659 40.8909Z" fill="#FEA725"/>
<path d="M76.172 57.998L69.0022 50.8282C68.7076 50.5333 68.2296 50.5333 67.9351 50.8282C67.6402 51.1228 67.6402 51.6008 67.9351 51.8953L75.1049 59.0651C75.2521 59.2125 75.4452 59.2862 75.6385 59.2862C75.8314 59.2862 76.0249 59.2125 76.172 59.0651C76.4669 58.7706 76.4669 58.2926 76.172 57.998Z" fill="#FEA725"/>
<path d="M75.9836 51.4073L68.9402 58.4766L70.0093 59.5418L77.0527 52.4724L75.9836 51.4073Z" fill="#FEA725"/>
<path d="M74.5006 49.9242L67.4573 56.9935L68.5264 58.0587L75.5698 50.9894L74.5006 49.9242Z" fill="#FEA725"/>
<path d="M71.7695 60.2117L66.7883 55.2303C66.4935 54.9357 66.0155 54.9353 65.7209 55.2303C65.4263 55.5249 65.4263 56.0026 65.7209 56.2975L70.702 61.2789C70.8494 61.4263 71.0427 61.5 71.2358 61.5C71.4288 61.5 71.6223 61.4263 71.7694 61.2789C72.0641 60.9843 72.0641 60.5066 71.7695 60.2117Z" fill="#FEA725"/>
<path d="M89.2789 37.7212C88.984 37.4264 88.5066 37.4264 88.2117 37.7212L85.5702 40.3627C85.2753 40.6573 85.2753 41.1353 85.5702 41.4299C85.7176 41.5773 85.9106 41.651 86.1038 41.651C86.297 41.651 86.4902 41.5772 86.6373 41.4299L89.2788 38.7884C89.5737 38.4938 89.5737 38.0158 89.2789 37.7212Z" fill="#FEA725"/>
<path d="M74.2598 48.4879L73.1925 49.5552L77.4439 53.8066L78.5113 52.7393L74.2598 48.4879Z" fill="#FEA725"/>
</g>
<path d="M50.3507 108.24C49.524 108.24 48.7774 108.099 48.1107 107.816C47.4494 107.528 46.9027 107.12 46.4707 106.592C46.044 106.059 45.7667 105.427 45.6387 104.696L47.3827 104.432C47.5587 105.136 47.9267 105.685 48.4867 106.08C49.0467 106.469 49.7 106.664 50.4467 106.664C50.9107 106.664 51.3374 106.592 51.7267 106.448C52.116 106.299 52.428 106.088 52.6627 105.816C52.9027 105.539 53.0227 105.208 53.0227 104.824C53.0227 104.616 52.9854 104.432 52.9107 104.272C52.8414 104.112 52.7427 103.973 52.6147 103.856C52.492 103.733 52.34 103.629 52.1587 103.544C51.9827 103.453 51.788 103.376 51.5747 103.312L48.6227 102.44C48.3347 102.355 48.0414 102.245 47.7427 102.112C47.444 101.973 47.1694 101.795 46.9187 101.576C46.6734 101.352 46.4734 101.077 46.3187 100.752C46.164 100.421 46.0867 100.021 46.0867 99.552C46.0867 98.8427 46.268 98.2427 46.6307 97.752C46.9987 97.256 47.4947 96.8827 48.1187 96.632C48.7427 96.376 49.4414 96.248 50.2147 96.248C50.9934 96.2587 51.6894 96.3973 52.3027 96.664C52.9214 96.9307 53.4334 97.3147 53.8387 97.816C54.2494 98.312 54.532 98.9147 54.6867 99.624L52.8947 99.928C52.8147 99.496 52.644 99.1253 52.3827 98.816C52.1214 98.5013 51.8014 98.2613 51.4227 98.096C51.044 97.9253 50.6334 97.8373 50.1907 97.832C49.764 97.8213 49.372 97.8853 49.0147 98.024C48.6627 98.1627 48.38 98.3573 48.1667 98.608C47.9587 98.8587 47.8547 99.1467 47.8547 99.472C47.8547 99.792 47.948 100.051 48.1347 100.248C48.3214 100.445 48.5507 100.603 48.8227 100.72C49.1 100.832 49.3747 100.925 49.6467 101L51.7747 101.6C52.0414 101.675 52.3427 101.776 52.6787 101.904C53.02 102.027 53.348 102.2 53.6627 102.424C53.9827 102.648 54.2467 102.947 54.4547 103.32C54.6627 103.688 54.7667 104.152 54.7667 104.712C54.7667 105.293 54.6494 105.805 54.4147 106.248C54.18 106.685 53.8574 107.053 53.4467 107.352C53.0414 107.645 52.572 107.867 52.0387 108.016C51.5054 108.165 50.9427 108.24 50.3507 108.24ZM59.7276 108.232C59.1302 108.232 58.6289 108.136 58.2236 107.944C57.8182 107.752 57.4876 107.501 57.2316 107.192C56.9809 106.877 56.7889 106.536 56.6556 106.168C56.5222 105.8 56.4316 105.44 56.3836 105.088C56.3356 104.736 56.3116 104.427 56.3116 104.16V99.36H58.0076V103.608C58.0076 103.944 58.0342 104.291 58.0876 104.648C58.1462 105 58.2529 105.328 58.4076 105.632C58.5676 105.936 58.7889 106.181 59.0716 106.368C59.3596 106.555 59.7329 106.648 60.1916 106.648C60.4902 106.648 60.7729 106.6 61.0396 106.504C61.3062 106.403 61.5382 106.243 61.7356 106.024C61.9382 105.805 62.0956 105.517 62.2076 105.16C62.3249 104.803 62.3836 104.368 62.3836 103.856L63.4236 104.248C63.4236 105.032 63.2769 105.725 62.9836 106.328C62.6902 106.925 62.2689 107.392 61.7196 107.728C61.1702 108.064 60.5062 108.232 59.7276 108.232ZM62.5836 108V105.504H62.3836V99.36H64.0716V108H62.5836ZM66.3153 108V99.36H67.8033V101.456L67.5953 101.184C67.702 100.907 67.8406 100.653 68.0113 100.424C68.182 100.189 68.3793 99.9973 68.6033 99.848C68.822 99.688 69.0646 99.5653 69.3313 99.48C69.6033 99.3893 69.8806 99.336 70.1633 99.32C70.446 99.2987 70.718 99.312 70.9793 99.36V100.928C70.6966 100.853 70.382 100.832 70.0353 100.864C69.694 100.896 69.3793 101.005 69.0913 101.192C68.8193 101.368 68.6033 101.581 68.4433 101.832C68.2886 102.083 68.1766 102.363 68.1073 102.672C68.038 102.976 68.0033 103.299 68.0033 103.64V108H66.3153ZM75.7503 112.08C75.2863 112.08 74.8356 112.008 74.3983 111.864C73.9663 111.72 73.5716 111.507 73.2143 111.224C72.857 110.947 72.561 110.603 72.3263 110.192L73.8703 109.408C74.057 109.776 74.3236 110.045 74.6703 110.216C75.017 110.387 75.3823 110.472 75.7663 110.472C76.241 110.472 76.6463 110.387 76.9823 110.216C77.3183 110.051 77.5716 109.8 77.7423 109.464C77.9183 109.128 78.0036 108.712 77.9983 108.216V105.8H78.1983V99.36H79.6783V108.232C79.6783 108.461 79.6703 108.68 79.6543 108.888C79.6383 109.096 79.609 109.304 79.5663 109.512C79.4436 110.093 79.209 110.573 78.8623 110.952C78.521 111.331 78.0836 111.613 77.5503 111.8C77.0223 111.987 76.4223 112.08 75.7503 112.08ZM75.6223 108.24C74.817 108.24 74.121 108.04 73.5343 107.64C72.953 107.24 72.5023 106.696 72.1823 106.008C71.8676 105.315 71.7103 104.536 71.7103 103.672C71.7103 102.803 71.8703 102.027 72.1903 101.344C72.5103 100.656 72.9636 100.115 73.5503 99.72C74.1423 99.32 74.8436 99.12 75.6543 99.12C76.4703 99.12 77.1556 99.32 77.7103 99.72C78.2703 100.115 78.6916 100.656 78.9743 101.344C79.2623 102.032 79.4063 102.808 79.4063 103.672C79.4063 104.536 79.2623 105.312 78.9743 106C78.6863 106.688 78.2623 107.235 77.7023 107.64C77.1423 108.04 76.449 108.24 75.6223 108.24ZM75.8543 106.728C76.4036 106.728 76.8516 106.597 77.1983 106.336C77.545 106.075 77.7983 105.715 77.9583 105.256C78.1183 104.797 78.1983 104.269 78.1983 103.672C78.1983 103.075 78.1156 102.547 77.9503 102.088C77.7903 101.629 77.5396 101.272 77.1983 101.016C76.8623 100.76 76.433 100.632 75.9103 100.632C75.3556 100.632 74.8996 100.768 74.5423 101.04C74.185 101.312 73.9183 101.677 73.7423 102.136C73.5716 102.595 73.4863 103.107 73.4863 103.672C73.4863 104.243 73.5716 104.76 73.7423 105.224C73.9183 105.683 74.1796 106.048 74.5263 106.32C74.8783 106.592 75.321 106.728 75.8543 106.728ZM85.7567 108.24C84.898 108.24 84.1434 108.053 83.4927 107.68C82.8474 107.301 82.3434 106.776 81.9807 106.104C81.6234 105.427 81.4447 104.643 81.4447 103.752C81.4447 102.808 81.6207 101.989 81.9727 101.296C82.33 100.603 82.826 100.067 83.4607 99.688C84.0954 99.3093 84.834 99.12 85.6767 99.12C86.5567 99.12 87.306 99.3253 87.9247 99.736C88.5434 100.141 89.0047 100.72 89.3087 101.472C89.618 102.224 89.7407 103.117 89.6767 104.152H88.0047V103.544C87.994 102.541 87.802 101.8 87.4287 101.32C87.0607 100.84 86.498 100.6 85.7407 100.6C84.9034 100.6 84.274 100.864 83.8527 101.392C83.4314 101.92 83.2207 102.683 83.2207 103.68C83.2207 104.629 83.4314 105.365 83.8527 105.888C84.274 106.405 84.882 106.664 85.6767 106.664C86.1994 106.664 86.65 106.547 87.0287 106.312C87.4127 106.072 87.7114 105.731 87.9247 105.288L89.5647 105.808C89.2287 106.581 88.7194 107.181 88.0367 107.608C87.354 108.029 86.594 108.24 85.7567 108.24ZM82.6767 104.152V102.848H88.8447V104.152H82.6767ZM95.2236 108.24C94.3596 108.24 93.6102 108.045 92.9756 107.656C92.3409 107.267 91.8502 106.731 91.5036 106.048C91.1622 105.36 90.9916 104.568 90.9916 103.672C90.9916 102.771 91.1676 101.979 91.5196 101.296C91.8716 100.608 92.3649 100.075 92.9996 99.696C93.6342 99.312 94.3756 99.12 95.2236 99.12C96.0876 99.12 96.8369 99.3147 97.4716 99.704C98.1062 100.093 98.5969 100.629 98.9436 101.312C99.2902 101.995 99.4636 102.781 99.4636 103.672C99.4636 104.573 99.2876 105.368 98.9356 106.056C98.5889 106.739 98.0982 107.275 97.4636 107.664C96.8289 108.048 96.0822 108.24 95.2236 108.24ZM95.2236 106.664C96.0502 106.664 96.6662 106.387 97.0716 105.832C97.4822 105.272 97.6876 104.552 97.6876 103.672C97.6876 102.771 97.4796 102.051 97.0636 101.512C96.6529 100.968 96.0396 100.696 95.2236 100.696C94.6636 100.696 94.2022 100.824 93.8396 101.08C93.4769 101.331 93.2076 101.68 93.0316 102.128C92.8556 102.571 92.7676 103.085 92.7676 103.672C92.7676 104.579 92.9756 105.304 93.3916 105.848C93.8076 106.392 94.4182 106.664 95.2236 106.664ZM107.286 108V103.752C107.286 103.416 107.256 103.072 107.198 102.72C107.144 102.363 107.038 102.032 106.878 101.728C106.723 101.424 106.502 101.179 106.214 100.992C105.931 100.805 105.56 100.712 105.102 100.712C104.803 100.712 104.52 100.763 104.254 100.864C103.987 100.96 103.752 101.117 103.55 101.336C103.352 101.555 103.195 101.843 103.078 102.2C102.966 102.557 102.91 102.992 102.91 103.504L101.87 103.112C101.87 102.328 102.016 101.637 102.31 101.04C102.603 100.437 103.024 99.968 103.574 99.632C104.123 99.296 104.787 99.128 105.566 99.128C106.163 99.128 106.664 99.224 107.07 99.416C107.475 99.608 107.803 99.8613 108.054 100.176C108.31 100.485 108.504 100.824 108.638 101.192C108.771 101.56 108.862 101.92 108.91 102.272C108.958 102.624 108.982 102.933 108.982 103.2V108H107.286ZM101.214 108V99.36H102.71V101.856H102.91V108H101.214Z" fill="white"/>
</g>
<defs>
<filter id="filter0_f_0_94" x="-40" y="-40" width="116" height="116" filterUnits="userSpaceOnUse" color-interpolation-filters="sRGB">
<feFlood flood-opacity="0" result="BackgroundImageFix"/>
<feBlend mode="normal" in="SourceGraphic" in2="BackgroundImageFix" result="shape"/>
<feGaussianBlur stdDeviation="15" result="effect1_foregroundBlur_0_94"/>
</filter>
<clipPath id="clip0_0_94">
<rect width="156" height="137" fill="white"/>
</clipPath>
<clipPath id="clip1_0_94">
<rect width="24" height="24" fill="white" transform="translate(65.5 37.5)"/>
</clipPath>
</defs>
</svg>
