<svg width="155" height="137" viewBox="0 0 155 137" fill="none" xmlns="http://www.w3.org/2000/svg">
<g clip-path="url(#clip0_0_125)">
<rect width="155" height="137" rx="18" fill="#68EEBE"/>
<g filter="url(#filter0_f_0_125)">
<circle cx="18" cy="18" r="28" fill="white" fill-opacity="0.6"/>
</g>
<rect x="51" y="24" width="51" height="51" rx="12" fill="white"/>
<g clip-path="url(#clip1_0_125)">
<path d="M82.0744 37.5H70.9531C70.4981 37.5 70.1293 37.8688 70.1293 38.3238V42.3604C70.1293 42.8154 70.4981 43.1842 70.9531 43.1842H82.0744C82.5294 43.1842 82.8981 42.8154 82.8981 42.3604V38.3238C82.8981 37.8688 82.5294 37.5 82.0744 37.5ZM81.2506 41.5366H71.7769V39.1476H81.2505V41.5366H81.2506Z" fill="#68EEBE"/>
<path d="M80.8936 42.388H79.246V46.1775H80.8936V42.388Z" fill="#68EEBE"/>
<path d="M73.754 42.388H72.1064V46.1775H73.754V42.388Z" fill="#68EEBE"/>
<path d="M82.4863 45.3535H70.5137C69.7567 45.3535 69.1407 45.9694 69.1407 46.7265V60.127C69.1407 60.884 69.7567 61.5 70.5137 61.5H82.4863C83.2433 61.5 83.8593 60.884 83.8593 60.127V46.7265C83.8593 45.9694 83.2433 45.3535 82.4863 45.3535ZM82.2117 59.8524H70.7883V47.0011H82.2117V59.8524Z" fill="#68EEBE"/>
<path d="M76.5 49.6647C76.045 49.6647 75.6762 50.0335 75.6762 50.4885V56.3649C75.6762 56.8199 76.045 57.1887 76.5 57.1887C76.955 57.1887 77.3238 56.8199 77.3238 56.3649V50.4885C77.3238 50.0335 76.955 49.6647 76.5 49.6647Z" fill="#68EEBE"/>
<path d="M79.4382 52.603H73.5618C73.1068 52.603 72.738 52.9718 72.738 53.4268C72.738 53.8818 73.1068 54.2506 73.5618 54.2506H79.4382C79.8935 54.2506 80.262 53.8818 80.262 53.4268C80.262 52.9718 79.8932 52.603 79.4382 52.603Z" fill="#68EEBE"/>
</g>
<path d="M39.5263 108V96.48H41.0383L45.2143 105.144L49.3663 96.48H50.8943V107.992H49.3103V100.112L45.5903 108H44.8303L41.1023 100.112V108H39.5263ZM56.9676 108.24C56.109 108.24 55.3543 108.053 54.7036 107.68C54.0583 107.301 53.5543 106.776 53.1916 106.104C52.8343 105.427 52.6556 104.643 52.6556 103.752C52.6556 102.808 52.8316 101.989 53.1836 101.296C53.541 100.603 54.037 100.067 54.6716 99.688C55.3063 99.3093 56.045 99.12 56.8876 99.12C57.7676 99.12 58.517 99.3253 59.1356 99.736C59.7543 100.141 60.2156 100.72 60.5196 101.472C60.829 102.224 60.9516 103.117 60.8876 104.152H59.2156V103.544C59.205 102.541 59.013 101.8 58.6396 101.32C58.2716 100.84 57.709 100.6 56.9516 100.6C56.1143 100.6 55.485 100.864 55.0636 101.392C54.6423 101.92 54.4316 102.683 54.4316 103.68C54.4316 104.629 54.6423 105.365 55.0636 105.888C55.485 106.405 56.093 106.664 56.8876 106.664C57.4103 106.664 57.861 106.547 58.2396 106.312C58.6236 106.072 58.9223 105.731 59.1356 105.288L60.7756 105.808C60.4396 106.581 59.9303 107.181 59.2476 107.608C58.565 108.029 57.805 108.24 56.9676 108.24ZM53.8876 104.152V102.848H60.0556V104.152H53.8876ZM66.1145 108.24C65.3092 108.24 64.6132 108.04 64.0265 107.64C63.4452 107.24 62.9945 106.696 62.6745 106.008C62.3598 105.315 62.2025 104.536 62.2025 103.672C62.2025 102.803 62.3625 102.027 62.6825 101.344C63.0025 100.656 63.4558 100.115 64.0425 99.72C64.6345 99.32 65.3358 99.12 66.1465 99.12C66.9625 99.12 67.6478 99.32 68.2025 99.72C68.7625 100.115 69.1838 100.656 69.4665 101.344C69.7545 102.032 69.8985 102.808 69.8985 103.672C69.8985 104.536 69.7545 105.312 69.4665 106C69.1785 106.688 68.7545 107.235 68.1945 107.64C67.6345 108.04 66.9412 108.24 66.1145 108.24ZM66.3465 106.728C66.8958 106.728 67.3438 106.597 67.6905 106.336C68.0372 106.075 68.2905 105.715 68.4505 105.256C68.6105 104.797 68.6905 104.269 68.6905 103.672C68.6905 103.075 68.6078 102.547 68.4425 102.088C68.2825 101.629 68.0318 101.272 67.6905 101.016C67.3545 100.76 66.9252 100.632 66.4025 100.632C65.8478 100.632 65.3918 100.768 65.0345 101.04C64.6772 101.312 64.4105 101.677 64.2345 102.136C64.0638 102.595 63.9785 103.107 63.9785 103.672C63.9785 104.243 64.0638 104.76 64.2345 105.224C64.4105 105.683 64.6718 106.048 65.0185 106.32C65.3705 106.592 65.8132 106.728 66.3465 106.728ZM68.6905 108V101.784H68.4985V96.48H70.1785V108H68.6905ZM72.5769 97.944V96.32H74.2489V97.944H72.5769ZM72.5769 108V99.36H74.2489V108H72.5769ZM80.3473 108.24C79.4619 108.24 78.7099 108.043 78.0913 107.648C77.4726 107.253 76.9979 106.712 76.6673 106.024C76.3419 105.336 76.1766 104.555 76.1713 103.68C76.1766 102.789 76.3473 102.003 76.6833 101.32C77.0193 100.632 77.4993 100.093 78.1233 99.704C78.7473 99.3147 79.4966 99.12 80.3713 99.12C81.3153 99.12 82.1206 99.3547 82.7873 99.824C83.4593 100.293 83.9019 100.936 84.1153 101.752L82.4513 102.232C82.2859 101.747 82.0139 101.371 81.6353 101.104C81.2619 100.832 80.8326 100.696 80.3473 100.696C79.7979 100.696 79.3473 100.827 78.9953 101.088C78.6433 101.344 78.3819 101.696 78.2113 102.144C78.0406 102.592 77.9526 103.104 77.9473 103.68C77.9526 104.571 78.1553 105.291 78.5553 105.84C78.9606 106.389 79.5579 106.664 80.3473 106.664C80.8859 106.664 81.3206 106.541 81.6513 106.296C81.9873 106.045 82.2433 105.688 82.4193 105.224L84.1153 105.624C83.8326 106.467 83.3659 107.115 82.7153 107.568C82.0646 108.016 81.2753 108.24 80.3473 108.24ZM85.6706 97.944V96.32H87.3426V97.944H85.6706ZM85.6706 108V99.36H87.3426V108H85.6706ZM95.809 108V103.752C95.809 103.416 95.7797 103.072 95.721 102.72C95.6677 102.363 95.561 102.032 95.401 101.728C95.2463 101.424 95.025 101.179 94.737 100.992C94.4543 100.805 94.0837 100.712 93.625 100.712C93.3263 100.712 93.0437 100.763 92.777 100.864C92.5103 100.96 92.2757 101.117 92.073 101.336C91.8757 101.555 91.7183 101.843 91.601 102.2C91.489 102.557 91.433 102.992 91.433 103.504L90.393 103.112C90.393 102.328 90.5397 101.637 90.833 101.04C91.1263 100.437 91.5477 99.968 92.097 99.632C92.6463 99.296 93.3103 99.128 94.089 99.128C94.6863 99.128 95.1877 99.224 95.593 99.416C95.9983 99.608 96.3263 99.8613 96.577 100.176C96.833 100.485 97.0277 100.824 97.161 101.192C97.2943 101.56 97.385 101.92 97.433 102.272C97.481 102.624 97.505 102.933 97.505 103.2V108H95.809ZM89.737 108V99.36H91.233V101.856H91.433V108H89.737ZM103.421 108.24C102.562 108.24 101.807 108.053 101.157 107.68C100.511 107.301 100.007 106.776 99.6447 106.104C99.2874 105.427 99.1088 104.643 99.1088 103.752C99.1088 102.808 99.2848 101.989 99.6368 101.296C99.9941 100.603 100.49 100.067 101.125 99.688C101.759 99.3093 102.498 99.12 103.341 99.12C104.221 99.12 104.97 99.3253 105.589 99.736C106.207 100.141 106.669 100.72 106.973 101.472C107.282 102.224 107.405 103.117 107.341 104.152H105.669V103.544C105.658 102.541 105.466 101.8 105.093 101.32C104.725 100.84 104.162 100.6 103.405 100.6C102.567 100.6 101.938 100.864 101.517 101.392C101.095 101.92 100.885 102.683 100.885 103.68C100.885 104.629 101.095 105.365 101.517 105.888C101.938 106.405 102.546 106.664 103.341 106.664C103.863 106.664 104.314 106.547 104.693 106.312C105.077 106.072 105.375 105.731 105.589 105.288L107.229 105.808C106.893 106.581 106.383 107.181 105.701 107.608C105.018 108.029 104.258 108.24 103.421 108.24ZM100.341 104.152V102.848H106.509V104.152H100.341ZM112.44 108.232C111.389 108.232 110.533 108 109.872 107.536C109.21 107.072 108.805 106.419 108.656 105.576L110.368 105.312C110.474 105.76 110.72 106.115 111.104 106.376C111.493 106.632 111.976 106.76 112.552 106.76C113.074 106.76 113.482 106.653 113.776 106.44C114.074 106.227 114.224 105.933 114.224 105.56C114.224 105.341 114.17 105.165 114.064 105.032C113.962 104.893 113.746 104.763 113.416 104.64C113.085 104.517 112.581 104.365 111.904 104.184C111.162 103.992 110.573 103.787 110.136 103.568C109.704 103.344 109.394 103.085 109.208 102.792C109.026 102.493 108.936 102.133 108.936 101.712C108.936 101.189 109.074 100.733 109.352 100.344C109.629 99.9547 110.018 99.6533 110.52 99.44C111.026 99.2267 111.618 99.12 112.296 99.12C112.957 99.12 113.546 99.224 114.064 99.432C114.581 99.64 115 99.936 115.32 100.32C115.64 100.699 115.832 101.144 115.896 101.656L114.184 101.968C114.125 101.552 113.93 101.224 113.6 100.984C113.269 100.744 112.84 100.613 112.312 100.592C111.805 100.571 111.394 100.656 111.08 100.848C110.765 101.035 110.608 101.293 110.608 101.624C110.608 101.816 110.666 101.979 110.784 102.112C110.906 102.245 111.141 102.373 111.488 102.496C111.834 102.619 112.346 102.765 113.024 102.936C113.749 103.123 114.325 103.331 114.752 103.56C115.178 103.784 115.482 104.053 115.664 104.368C115.85 104.677 115.944 105.053 115.944 105.496C115.944 106.349 115.632 107.019 115.008 107.504C114.389 107.989 113.533 108.232 112.44 108.232Z" fill="white"/>
</g>
<defs>
<filter id="filter0_f_0_125" x="-40" y="-40" width="116" height="116" filterUnits="userSpaceOnUse" color-interpolation-filters="sRGB">
<feFlood flood-opacity="0" result="BackgroundImageFix"/>
<feBlend mode="normal" in="SourceGraphic" in2="BackgroundImageFix" result="shape"/>
<feGaussianBlur stdDeviation="15" result="effect1_foregroundBlur_0_125"/>
</filter>
<clipPath id="clip0_0_125">
<rect width="155" height="137" fill="white"/>
</clipPath>
<clipPath id="clip1_0_125">
<rect width="24" height="24" fill="white" transform="translate(64.5 37.5)"/>
</clipPath>
</defs>
</svg>
