<svg width="155" height="137" viewBox="0 0 155 137" fill="none" xmlns="http://www.w3.org/2000/svg">
<path d="M0 18C0 8.05888 8.05888 0 18 0H137C146.941 0 155 8.05888 155 18V119C155 128.941 146.941 137 137 137H18C8.05888 137 0 128.941 0 119V18Z" fill="#948BFF"/>
<mask id="mask0_0_56" style="mask-type:alpha" maskUnits="userSpaceOnUse" x="0" y="0" width="155" height="137">
<path d="M0 18C0 8.05888 8.05888 0 18 0H137C146.941 0 155 8.05888 155 18V119C155 128.941 146.941 137 137 137H18C8.05888 137 0 128.941 0 119V18Z" fill="#E3E6FF"/>
</mask>
<g mask="url(#mask0_0_56)">
<g filter="url(#filter0_f_0_56)">
<circle cx="18" cy="18" r="28" fill="white" fill-opacity="0.4"/>
</g>
</g>
<rect x="52" y="24" width="51" height="51" rx="12" fill="white"/>
<g clip-path="url(#clip0_0_56)">
<path d="M82.5017 39.1428H79.9236V40.7375H81.7044V44.299C81.7044 46.981 79.5223 49.1628 76.8406 49.1628H76.4685C73.7865 49.1628 71.6047 46.9807 71.6047 44.299V40.7375H73.3854V39.1428H70.8073C70.3669 39.1428 70.01 39.4998 70.01 39.9402V44.299C70.01 47.8602 72.9073 50.7575 76.4685 50.7575H76.8406C80.4017 50.7575 83.299 47.8602 83.299 44.299V39.9402C83.299 39.4998 82.9421 39.1428 82.5017 39.1428Z" fill="#7166F9"/>
<path d="M79.8439 38C79.4035 38 79.0465 38.357 79.0465 38.7973V41.0299C79.0465 41.4703 79.4035 41.8273 79.8439 41.8273C80.2843 41.8273 80.6412 41.4703 80.6412 41.0299V38.7973C80.6412 38.357 80.2843 38 79.8439 38Z" fill="#7166F9"/>
<path d="M73.5448 38C73.1044 38 72.7475 38.357 72.7475 38.7973V41.0299C72.7475 41.4703 73.1044 41.8273 73.5448 41.8273C73.9852 41.8273 74.3422 41.4703 74.3422 41.0299V38.7973C74.3422 38.357 73.9852 38 73.5448 38Z" fill="#7166F9"/>
<path d="M77.505 54.4522V49.9339H75.9103V54.4522H73.3322C71.2512 54.4522 69.5581 56.1452 69.5581 58.226C69.5581 60.3071 71.2631 62.0001 73.3588 62.0001H73.7309C75.8119 62.0001 77.505 60.3071 77.505 58.226V56.0469H80.2159V54.4522H77.505ZM75.9103 58.2257C75.9103 59.4273 74.9325 60.4052 73.7309 60.4052H73.3588C72.1219 60.4052 71.1528 59.4481 71.1528 58.2257C71.1528 57.0242 72.1306 56.0466 73.3322 56.0466H75.9103V58.2257Z" fill="#7166F9"/>
<path d="M81.9436 52.7511C80.5663 52.7511 79.4455 53.8717 79.4455 55.2495C79.4455 56.6268 80.566 57.7476 81.9436 57.7476C83.3211 57.7476 84.4419 56.6268 84.4419 55.2495C84.4419 53.8719 83.3214 52.7511 81.9436 52.7511ZM81.9436 56.1526C81.4455 56.1526 81.0402 55.7473 81.0402 55.2493C81.0402 54.7509 81.4455 54.3456 81.9436 54.3456C82.4419 54.3456 82.8472 54.7509 82.8472 55.2493C82.8472 55.7473 82.4419 56.1526 81.9436 56.1526Z" fill="#7166F9"/>
</g>
<path d="M37.12 108V96.48H40.728C40.8347 96.48 41.032 96.4827 41.32 96.488C41.6133 96.4933 41.8933 96.5147 42.16 96.552C43.0613 96.664 43.8187 96.9867 44.432 97.52C45.0507 98.0533 45.5173 98.7307 45.832 99.552C46.1467 100.368 46.304 101.264 46.304 102.24C46.304 103.221 46.1467 104.123 45.832 104.944C45.5173 105.76 45.0507 106.435 44.432 106.968C43.8187 107.496 43.0613 107.816 42.16 107.928C41.8933 107.965 41.6133 107.987 41.32 107.992C41.032 107.997 40.8347 108 40.728 108H37.12ZM38.832 106.408H40.728C40.9093 106.408 41.1253 106.403 41.376 106.392C41.6267 106.381 41.848 106.36 42.04 106.328C42.6267 106.216 43.1013 105.963 43.464 105.568C43.832 105.168 44.1013 104.677 44.272 104.096C44.4427 103.515 44.528 102.896 44.528 102.24C44.528 101.563 44.44 100.936 44.264 100.36C44.088 99.7787 43.816 99.2933 43.448 98.904C43.0853 98.5093 42.616 98.2587 42.04 98.152C41.848 98.1147 41.624 98.0933 41.368 98.088C41.1173 98.0773 40.904 98.072 40.728 98.072H38.832V106.408ZM48.3269 97.944V96.32H49.9989V97.944H48.3269ZM48.3269 108V99.36H49.9989V108H48.3269ZM54.8413 108.24C54.2013 108.24 53.6653 108.123 53.2333 107.888C52.8013 107.648 52.4733 107.333 52.2493 106.944C52.0306 106.549 51.9213 106.117 51.9213 105.648C51.9213 105.211 51.9986 104.827 52.1533 104.496C52.3079 104.165 52.5373 103.885 52.8413 103.656C53.1453 103.421 53.5186 103.232 53.9613 103.088C54.3453 102.976 54.7799 102.877 55.2653 102.792C55.7506 102.707 56.2599 102.627 56.7933 102.552C57.3319 102.477 57.8653 102.403 58.3933 102.328L57.7853 102.664C57.7959 101.987 57.6519 101.485 57.3533 101.16C57.0599 100.829 56.5533 100.664 55.8333 100.664C55.3799 100.664 54.9639 100.771 54.5853 100.984C54.2066 101.192 53.9426 101.539 53.7933 102.024L52.2333 101.544C52.4466 100.803 52.8519 100.213 53.4493 99.776C54.0519 99.3387 54.8519 99.12 55.8493 99.12C56.6226 99.12 57.2946 99.2533 57.8653 99.52C58.4413 99.7813 58.8626 100.197 59.1293 100.768C59.2679 101.051 59.3533 101.349 59.3853 101.664C59.4173 101.979 59.4333 102.317 59.4333 102.68V108H57.9533V106.024L58.2413 106.28C57.8839 106.941 57.4279 107.435 56.8733 107.76C56.3239 108.08 55.6466 108.24 54.8413 108.24ZM55.1373 106.872C55.6119 106.872 56.0199 106.789 56.3613 106.624C56.7026 106.453 56.9773 106.237 57.1853 105.976C57.3933 105.715 57.5293 105.443 57.5933 105.16C57.6839 104.904 57.7346 104.616 57.7453 104.296C57.7613 103.976 57.7693 103.72 57.7693 103.528L58.3133 103.728C57.7853 103.808 57.3053 103.88 56.8733 103.944C56.4413 104.008 56.0493 104.072 55.6973 104.136C55.3506 104.195 55.0413 104.267 54.7693 104.352C54.5399 104.432 54.3346 104.528 54.1533 104.64C53.9773 104.752 53.8359 104.888 53.7293 105.048C53.6279 105.208 53.5773 105.403 53.5773 105.632C53.5773 105.856 53.6333 106.064 53.7453 106.256C53.8573 106.443 54.0279 106.592 54.2573 106.704C54.4866 106.816 54.7799 106.872 55.1373 106.872ZM65.0706 112.08C64.6066 112.08 64.156 112.008 63.7186 111.864C63.2866 111.72 62.892 111.507 62.5346 111.224C62.1773 110.947 61.8813 110.603 61.6466 110.192L63.1906 109.408C63.3773 109.776 63.644 110.045 63.9906 110.216C64.3373 110.387 64.7026 110.472 65.0866 110.472C65.5613 110.472 65.9666 110.387 66.3026 110.216C66.6386 110.051 66.892 109.8 67.0626 109.464C67.2386 109.128 67.324 108.712 67.3186 108.216V105.8H67.5186V99.36H68.9986V108.232C68.9986 108.461 68.9906 108.68 68.9746 108.888C68.9586 109.096 68.9293 109.304 68.8866 109.512C68.764 110.093 68.5293 110.573 68.1826 110.952C67.8413 111.331 67.404 111.613 66.8706 111.8C66.3426 111.987 65.7426 112.08 65.0706 112.08ZM64.9426 108.24C64.1373 108.24 63.4413 108.04 62.8546 107.64C62.2733 107.24 61.8226 106.696 61.5026 106.008C61.188 105.315 61.0306 104.536 61.0306 103.672C61.0306 102.803 61.1906 102.027 61.5106 101.344C61.8306 100.656 62.284 100.115 62.8706 99.72C63.4626 99.32 64.164 99.12 64.9746 99.12C65.7906 99.12 66.476 99.32 67.0306 99.72C67.5906 100.115 68.012 100.656 68.2946 101.344C68.5826 102.032 68.7266 102.808 68.7266 103.672C68.7266 104.536 68.5826 105.312 68.2946 106C68.0066 106.688 67.5826 107.235 67.0226 107.64C66.4626 108.04 65.7693 108.24 64.9426 108.24ZM65.1746 106.728C65.724 106.728 66.172 106.597 66.5186 106.336C66.8653 106.075 67.1186 105.715 67.2786 105.256C67.4386 104.797 67.5186 104.269 67.5186 103.672C67.5186 103.075 67.436 102.547 67.2706 102.088C67.1106 101.629 66.86 101.272 66.5186 101.016C66.1826 100.76 65.7533 100.632 65.2306 100.632C64.676 100.632 64.22 100.768 63.8626 101.04C63.5053 101.312 63.2386 101.677 63.0626 102.136C62.892 102.595 62.8066 103.107 62.8066 103.672C62.8066 104.243 62.892 104.76 63.0626 105.224C63.2386 105.683 63.5 106.048 63.8466 106.32C64.1986 106.592 64.6413 106.728 65.1746 106.728ZM77.309 108V103.752C77.309 103.416 77.2797 103.072 77.221 102.72C77.1677 102.363 77.061 102.032 76.901 101.728C76.7463 101.424 76.525 101.179 76.237 100.992C75.9543 100.805 75.5837 100.712 75.125 100.712C74.8263 100.712 74.5437 100.763 74.277 100.864C74.0103 100.96 73.7757 101.117 73.573 101.336C73.3757 101.555 73.2183 101.843 73.101 102.2C72.989 102.557 72.933 102.992 72.933 103.504L71.893 103.112C71.893 102.328 72.0397 101.637 72.333 101.04C72.6263 100.437 73.0477 99.968 73.597 99.632C74.1463 99.296 74.8103 99.128 75.589 99.128C76.1863 99.128 76.6877 99.224 77.093 99.416C77.4983 99.608 77.8263 99.8613 78.077 100.176C78.333 100.485 78.5277 100.824 78.661 101.192C78.7943 101.56 78.885 101.92 78.933 102.272C78.981 102.624 79.005 102.933 79.005 103.2V108H77.309ZM71.237 108V99.36H72.733V101.856H72.933V108H71.237ZM84.8408 108.24C83.9768 108.24 83.2274 108.045 82.5928 107.656C81.9581 107.267 81.4674 106.731 81.1208 106.048C80.7794 105.36 80.6088 104.568 80.6088 103.672C80.6088 102.771 80.7848 101.979 81.1368 101.296C81.4888 100.608 81.9821 100.075 82.6168 99.696C83.2514 99.312 83.9928 99.12 84.8408 99.12C85.7048 99.12 86.4541 99.3147 87.0888 99.704C87.7234 100.093 88.2141 100.629 88.5608 101.312C88.9074 101.995 89.0808 102.781 89.0808 103.672C89.0808 104.573 88.9048 105.368 88.5528 106.056C88.2061 106.739 87.7154 107.275 87.0808 107.664C86.4461 108.048 85.6994 108.24 84.8408 108.24ZM84.8408 106.664C85.6674 106.664 86.2834 106.387 86.6888 105.832C87.0994 105.272 87.3048 104.552 87.3048 103.672C87.3048 102.771 87.0968 102.051 86.6808 101.512C86.2701 100.968 85.6568 100.696 84.8408 100.696C84.2808 100.696 83.8194 100.824 83.4568 101.08C83.0941 101.331 82.8248 101.68 82.6488 102.128C82.4728 102.571 82.3848 103.085 82.3848 103.672C82.3848 104.579 82.5928 105.304 83.0088 105.848C83.4248 106.392 84.0354 106.664 84.8408 106.664ZM94.1428 108.232C93.0921 108.232 92.2361 108 91.5748 107.536C90.9134 107.072 90.5081 106.419 90.3588 105.576L92.0707 105.312C92.1774 105.76 92.4228 106.115 92.8068 106.376C93.1961 106.632 93.6788 106.76 94.2548 106.76C94.7774 106.76 95.1854 106.653 95.4788 106.44C95.7774 106.227 95.9268 105.933 95.9268 105.56C95.9268 105.341 95.8734 105.165 95.7668 105.032C95.6654 104.893 95.4494 104.763 95.1188 104.64C94.7881 104.517 94.2841 104.365 93.6068 104.184C92.8654 103.992 92.2761 103.787 91.8388 103.568C91.4068 103.344 91.0974 103.085 90.9108 102.792C90.7294 102.493 90.6388 102.133 90.6388 101.712C90.6388 101.189 90.7774 100.733 91.0548 100.344C91.3321 99.9547 91.7214 99.6533 92.2228 99.44C92.7294 99.2267 93.3214 99.12 93.9988 99.12C94.6601 99.12 95.2494 99.224 95.7668 99.432C96.2841 99.64 96.7028 99.936 97.0228 100.32C97.3428 100.699 97.5348 101.144 97.5988 101.656L95.8868 101.968C95.8281 101.552 95.6334 101.224 95.3028 100.984C94.9721 100.744 94.5428 100.613 94.0148 100.592C93.5081 100.571 93.0974 100.656 92.7828 100.848C92.4681 101.035 92.3108 101.293 92.3108 101.624C92.3108 101.816 92.3694 101.979 92.4868 102.112C92.6094 102.245 92.8441 102.373 93.1908 102.496C93.5374 102.619 94.0494 102.765 94.7268 102.936C95.4521 103.123 96.0281 103.331 96.4548 103.56C96.8814 103.784 97.1854 104.053 97.3668 104.368C97.5534 104.677 97.6468 105.053 97.6468 105.496C97.6468 106.349 97.3348 107.019 96.7108 107.504C96.0921 107.989 95.2361 108.232 94.1428 108.232ZM104.361 108C103.817 108.107 103.284 108.152 102.761 108.136C102.238 108.12 101.772 108.019 101.361 107.832C100.95 107.645 100.641 107.352 100.433 106.952C100.246 106.595 100.145 106.232 100.129 105.864C100.118 105.491 100.113 105.069 100.113 104.6V96.96H101.793V104.52C101.793 104.867 101.796 105.168 101.801 105.424C101.812 105.68 101.868 105.896 101.969 106.072C102.161 106.403 102.465 106.592 102.881 106.64C103.302 106.683 103.796 106.664 104.361 106.584V108ZM98.4569 100.704V99.36H104.361V100.704H98.4569ZM106.343 97.944V96.32H108.015V97.944H106.343ZM106.343 108V99.36H108.015V108H106.343ZM114.113 108.24C113.228 108.24 112.476 108.043 111.857 107.648C111.238 107.253 110.764 106.712 110.433 106.024C110.108 105.336 109.942 104.555 109.937 103.68C109.942 102.789 110.113 102.003 110.449 101.32C110.785 100.632 111.265 100.093 111.889 99.704C112.513 99.3147 113.262 99.12 114.137 99.12C115.081 99.12 115.886 99.3547 116.553 99.824C117.225 100.293 117.668 100.936 117.881 101.752L116.217 102.232C116.052 101.747 115.78 101.371 115.401 101.104C115.028 100.832 114.598 100.696 114.113 100.696C113.564 100.696 113.113 100.827 112.761 101.088C112.409 101.344 112.148 101.696 111.977 102.144C111.806 102.592 111.718 103.104 111.713 103.68C111.718 104.571 111.921 105.291 112.321 105.84C112.726 106.389 113.324 106.664 114.113 106.664C114.652 106.664 115.086 106.541 115.417 106.296C115.753 106.045 116.009 105.688 116.185 105.224L117.881 105.624C117.598 106.467 117.132 107.115 116.481 107.568C115.83 108.016 115.041 108.24 114.113 108.24Z" fill="white"/>
<defs>
<filter id="filter0_f_0_56" x="-40" y="-40" width="116" height="116" filterUnits="userSpaceOnUse" color-interpolation-filters="sRGB">
<feFlood flood-opacity="0" result="BackgroundImageFix"/>
<feBlend mode="normal" in="SourceGraphic" in2="BackgroundImageFix" result="shape"/>
<feGaussianBlur stdDeviation="15" result="effect1_foregroundBlur_0_56"/>
</filter>
<clipPath id="clip0_0_56">
<rect width="24" height="24" fill="white" transform="translate(65 38)"/>
</clipPath>
</defs>
</svg>
