<svg width="327" height="56" viewBox="0 0 327 56" fill="none" xmlns="http://www.w3.org/2000/svg">
<rect width="327" height="56" rx="18" fill="#F7F7F7"/>
<g clip-path="url(#clip0_0_49)">
<path d="M290.1 33.34C293.966 33.34 297.1 30.206 297.1 26.34C297.1 22.474 293.966 19.34 290.1 19.34C286.234 19.34 283.1 22.474 283.1 26.34C283.1 30.206 286.234 33.34 290.1 33.34Z" stroke="#25282B" stroke-width="2" stroke-linecap="round" stroke-linejoin="round"/>
<path d="M294.57 32.21L298.57 36.21" stroke="#25282B" stroke-width="2" stroke-linecap="round" stroke-linejoin="round"/>
</g>
<path d="M20.557 33.21C19.843 33.21 19.199 33.0887 18.625 32.846C18.0557 32.6033 17.5843 32.258 17.211 31.81C16.8423 31.3573 16.602 30.823 16.49 30.207L17.778 30.004C17.9413 30.6387 18.2797 31.1357 18.793 31.495C19.311 31.8497 19.92 32.027 20.62 32.027C21.0727 32.027 21.481 31.957 21.845 31.817C22.2137 31.6723 22.5053 31.467 22.72 31.201C22.9347 30.935 23.042 30.62 23.042 30.256C23.042 30.032 23.0023 29.8407 22.923 29.682C22.8483 29.5187 22.7433 29.381 22.608 29.269C22.4773 29.1523 22.328 29.0543 22.16 28.975C21.992 28.8957 21.817 28.8303 21.635 28.779L19.066 28.016C18.786 27.932 18.5153 27.827 18.254 27.701C17.9927 27.5703 17.7593 27.4093 17.554 27.218C17.3487 27.022 17.1853 26.7887 17.064 26.518C16.9427 26.2427 16.882 25.9183 16.882 25.545C16.882 24.9477 17.036 24.439 17.344 24.019C17.6567 23.5943 18.079 23.27 18.611 23.046C19.143 22.822 19.7427 22.7123 20.41 22.717C21.0867 22.7217 21.691 22.843 22.223 23.081C22.7597 23.3143 23.203 23.6503 23.553 24.089C23.9077 24.5277 24.1457 25.0527 24.267 25.664L22.944 25.895C22.874 25.4843 22.7177 25.132 22.475 24.838C22.237 24.5393 21.9383 24.3107 21.579 24.152C21.2197 23.9887 20.8253 23.9047 20.396 23.9C19.9853 23.8953 19.6143 23.9607 19.283 24.096C18.9517 24.2313 18.688 24.4203 18.492 24.663C18.296 24.901 18.198 25.1763 18.198 25.489C18.198 25.797 18.2867 26.0467 18.464 26.238C18.6413 26.4247 18.8583 26.574 19.115 26.686C19.3763 26.7933 19.6307 26.882 19.878 26.952L21.796 27.505C22.0153 27.5657 22.2673 27.6497 22.552 27.757C22.8413 27.8643 23.1213 28.016 23.392 28.212C23.6627 28.4033 23.8867 28.66 24.064 28.982C24.2413 29.2993 24.33 29.7007 24.33 30.186C24.33 30.6713 24.232 31.103 24.036 31.481C23.8447 31.859 23.5763 32.1763 23.231 32.433C22.8857 32.685 22.4843 32.8763 22.027 33.007C21.5697 33.1423 21.0797 33.21 20.557 33.21ZM29.0744 33.21C28.3324 33.21 27.6837 33.0467 27.1284 32.72C26.5777 32.3887 26.1484 31.929 25.8404 31.341C25.5324 30.7483 25.3784 30.0577 25.3784 29.269C25.3784 28.443 25.53 27.729 25.8334 27.127C26.1367 26.5203 26.559 26.0537 27.1004 25.727C27.6464 25.3957 28.2857 25.23 29.0184 25.23C29.779 25.23 30.4254 25.405 30.9574 25.755C31.494 26.105 31.8954 26.6043 32.1614 27.253C32.432 27.9017 32.5487 28.674 32.5114 29.57H31.2514V29.122C31.2374 28.1933 31.0484 27.5003 30.6844 27.043C30.3204 26.581 29.779 26.35 29.0604 26.35C28.2904 26.35 27.7047 26.5973 27.3034 27.092C26.902 27.5867 26.7014 28.296 26.7014 29.22C26.7014 30.1113 26.902 30.802 27.3034 31.292C27.7047 31.782 28.2764 32.027 29.0184 32.027C29.5177 32.027 29.9517 31.9127 30.3204 31.684C30.689 31.4553 30.9784 31.1263 31.1884 30.697L32.3854 31.11C32.0914 31.7773 31.648 32.2953 31.0554 32.664C30.4674 33.028 29.807 33.21 29.0744 33.21ZM26.2814 29.57V28.569H31.8674V29.57H26.2814ZM36.0821 33.21C35.5175 33.21 35.0438 33.1073 34.6611 32.902C34.2831 32.692 33.9961 32.4167 33.8001 32.076C33.6088 31.7353 33.5131 31.362 33.5131 30.956C33.5131 30.5593 33.5878 30.2163 33.7371 29.927C33.8911 29.633 34.1058 29.3903 34.3811 29.199C34.6565 29.003 34.9855 28.849 35.3681 28.737C35.7275 28.639 36.1288 28.555 36.5721 28.485C37.0201 28.4103 37.4728 28.3427 37.9301 28.282C38.3875 28.2213 38.8145 28.163 39.2111 28.107L38.7631 28.366C38.7771 27.694 38.6418 27.197 38.3571 26.875C38.0771 26.553 37.5918 26.392 36.9011 26.392C36.4438 26.392 36.0425 26.497 35.6971 26.707C35.3565 26.9123 35.1161 27.2483 34.9761 27.715L33.7931 27.358C33.9751 26.6953 34.3275 26.175 34.8501 25.797C35.3728 25.419 36.0611 25.23 36.9151 25.23C37.6011 25.23 38.1891 25.3537 38.6791 25.601C39.1738 25.8437 39.5285 26.2123 39.7431 26.707C39.8505 26.9403 39.9181 27.1947 39.9461 27.47C39.9741 27.7407 39.9881 28.0253 39.9881 28.324V33H38.8821V31.187L39.1411 31.355C38.8565 31.9663 38.4575 32.4283 37.9441 32.741C37.4355 33.0537 36.8148 33.21 36.0821 33.21ZM36.2711 32.167C36.7191 32.167 37.1065 32.0877 37.4331 31.929C37.7645 31.7657 38.0305 31.5533 38.2311 31.292C38.4318 31.026 38.5625 30.7367 38.6231 30.424C38.6931 30.1907 38.7305 29.9317 38.7351 29.647C38.7445 29.3577 38.7491 29.136 38.7491 28.982L39.1831 29.171C38.7771 29.227 38.3781 29.2807 37.9861 29.332C37.5941 29.3833 37.2231 29.4393 36.8731 29.5C36.5231 29.556 36.2081 29.6237 35.9281 29.703C35.7228 29.7683 35.5291 29.8523 35.3471 29.955C35.1698 30.0577 35.0251 30.1907 34.9131 30.354C34.8058 30.5127 34.7521 30.711 34.7521 30.949C34.7521 31.1543 34.8035 31.3503 34.9061 31.537C35.0135 31.7237 35.1768 31.8753 35.3961 31.992C35.6201 32.1087 35.9118 32.167 36.2711 32.167ZM41.8081 33V25.44H42.9211V27.267L42.7391 27.029C42.8278 26.7957 42.9421 26.581 43.0821 26.385C43.2268 26.189 43.3878 26.028 43.5651 25.902C43.7611 25.7433 43.9828 25.622 44.2301 25.538C44.4775 25.454 44.7295 25.405 44.9861 25.391C45.2428 25.3723 45.4831 25.3887 45.7071 25.44V26.609C45.4458 26.539 45.1588 26.5203 44.8461 26.553C44.5335 26.5857 44.2441 26.7 43.9781 26.896C43.7355 27.0687 43.5465 27.2787 43.4111 27.526C43.2805 27.7733 43.1895 28.0417 43.1381 28.331C43.0868 28.6157 43.0611 28.9073 43.0611 29.206V33H41.8081ZM50.0791 33.21C49.3137 33.21 48.6627 33.0397 48.1261 32.699C47.5941 32.3537 47.1881 31.88 46.9081 31.278C46.6281 30.676 46.4834 29.99 46.4741 29.22C46.4834 28.4313 46.6304 27.7383 46.9151 27.141C47.2044 26.539 47.6174 26.07 48.1541 25.734C48.6907 25.398 49.3371 25.23 50.0931 25.23C50.8911 25.23 51.5771 25.426 52.1511 25.818C52.7297 26.21 53.1171 26.7467 53.3131 27.428L52.0811 27.799C51.9224 27.3603 51.6634 27.0197 51.3041 26.777C50.9494 26.5343 50.5411 26.413 50.0791 26.413C49.5611 26.413 49.1341 26.5343 48.7981 26.777C48.4621 27.015 48.2124 27.3463 48.0491 27.771C47.8857 28.191 47.8017 28.674 47.7971 29.22C47.8064 30.06 48.0001 30.739 48.3781 31.257C48.7607 31.7703 49.3277 32.027 50.0791 32.027C50.5737 32.027 50.9844 31.915 51.3111 31.691C51.6377 31.4623 51.8851 31.1333 52.0531 30.704L53.3131 31.033C53.0517 31.7377 52.6434 32.2767 52.0881 32.65C51.5327 33.0233 50.8631 33.21 50.0791 33.21ZM60.1247 33V29.213C60.1247 28.8537 60.0921 28.5083 60.0267 28.177C59.9661 27.8457 59.8564 27.5493 59.6977 27.288C59.5437 27.022 59.3337 26.812 59.0677 26.658C58.8064 26.504 58.4751 26.427 58.0737 26.427C57.7611 26.427 57.4764 26.4807 57.2197 26.588C56.9677 26.6907 56.7507 26.8493 56.5687 27.064C56.3867 27.2787 56.2444 27.5493 56.1417 27.876C56.0437 28.198 55.9947 28.5783 55.9947 29.017L55.1757 28.765C55.1757 28.0323 55.3064 27.4047 55.5677 26.882C55.8337 26.3547 56.2047 25.951 56.6807 25.671C57.1614 25.3863 57.7261 25.244 58.3747 25.244C58.8647 25.244 59.2824 25.321 59.6277 25.475C59.9731 25.629 60.2601 25.8343 60.4887 26.091C60.7174 26.343 60.8971 26.6277 61.0277 26.945C61.1584 27.2577 61.2494 27.5773 61.3007 27.904C61.3567 28.226 61.3847 28.5317 61.3847 28.821V33H60.1247ZM54.7347 33V22.92H55.8547V28.485H55.9947V33H54.7347ZM68.9753 33.21C68.2707 33.21 67.6663 33.035 67.1623 32.685C66.6583 32.3303 66.2687 31.852 65.9933 31.25C65.7227 30.648 65.5873 29.969 65.5873 29.213C65.5873 28.457 65.7227 27.778 65.9933 27.176C66.2687 26.574 66.6583 26.1003 67.1623 25.755C67.6663 25.405 68.2683 25.23 68.9683 25.23C69.6823 25.23 70.282 25.4027 70.7673 25.748C71.2527 26.0933 71.619 26.567 71.8663 27.169C72.1183 27.771 72.2443 28.4523 72.2443 29.213C72.2443 29.9643 72.1183 30.6433 71.8663 31.25C71.619 31.852 71.2527 32.3303 70.7673 32.685C70.282 33.035 69.6847 33.21 68.9753 33.21ZM69.1293 32.069C69.638 32.069 70.0557 31.9477 70.3823 31.705C70.709 31.4577 70.9493 31.1193 71.1033 30.69C71.262 30.256 71.3413 29.7637 71.3413 29.213C71.3413 28.653 71.262 28.1607 71.1033 27.736C70.9493 27.3067 70.7113 26.973 70.3893 26.735C70.0673 26.4923 69.659 26.371 69.1643 26.371C68.651 26.371 68.2263 26.497 67.8903 26.749C67.559 27.001 67.3117 27.3417 67.1483 27.771C66.9897 28.2003 66.9103 28.681 66.9103 29.213C66.9103 29.7497 66.992 30.235 67.1553 30.669C67.3187 31.0983 67.5637 31.439 67.8903 31.691C68.2217 31.943 68.6347 32.069 69.1293 32.069ZM71.3413 33V27.435H71.2013V22.92H72.4543V33H71.3413ZM77.6355 33.21C76.8842 33.21 76.2355 33.0397 75.6895 32.699C75.1482 32.3583 74.7305 31.887 74.4365 31.285C74.1425 30.683 73.9955 29.9923 73.9955 29.213C73.9955 28.4197 74.1449 27.7243 74.4435 27.127C74.7422 26.5297 75.1645 26.0653 75.7105 25.734C76.2565 25.398 76.8982 25.23 77.6355 25.23C78.3915 25.23 79.0425 25.4003 79.5885 25.741C80.1345 26.077 80.5522 26.546 80.8415 27.148C81.1355 27.7453 81.2825 28.4337 81.2825 29.213C81.2825 30.0017 81.1355 30.697 80.8415 31.299C80.5475 31.8963 80.1275 32.3653 79.5815 32.706C79.0355 33.042 78.3869 33.21 77.6355 33.21ZM77.6355 32.027C78.4195 32.027 79.0029 31.7657 79.3855 31.243C79.7682 30.7203 79.9595 30.0437 79.9595 29.213C79.9595 28.359 79.7659 27.68 79.3785 27.176C78.9912 26.6673 78.4102 26.413 77.6355 26.413C77.1082 26.413 76.6742 26.532 76.3335 26.77C75.9929 27.008 75.7385 27.337 75.5705 27.757C75.4025 28.177 75.3185 28.6623 75.3185 29.213C75.3185 30.0623 75.5145 30.7437 75.9065 31.257C76.2985 31.7703 76.8749 32.027 77.6355 32.027ZM86.0088 33.21C85.2434 33.21 84.5924 33.0397 84.0558 32.699C83.5238 32.3537 83.1178 31.88 82.8378 31.278C82.5578 30.676 82.4131 29.99 82.4038 29.22C82.4131 28.4313 82.5601 27.7383 82.8448 27.141C83.1341 26.539 83.5471 26.07 84.0838 25.734C84.6204 25.398 85.2668 25.23 86.0228 25.23C86.8208 25.23 87.5068 25.426 88.0808 25.818C88.6594 26.21 89.0468 26.7467 89.2428 27.428L88.0108 27.799C87.8521 27.3603 87.5931 27.0197 87.2338 26.777C86.8791 26.5343 86.4708 26.413 86.0088 26.413C85.4908 26.413 85.0638 26.5343 84.7278 26.777C84.3918 27.015 84.1421 27.3463 83.9788 27.771C83.8154 28.191 83.7314 28.674 83.7268 29.22C83.7361 30.06 83.9298 30.739 84.3078 31.257C84.6904 31.7703 85.2574 32.027 86.0088 32.027C86.5034 32.027 86.9141 31.915 87.2408 31.691C87.5674 31.4623 87.8148 31.1333 87.9828 30.704L89.2428 31.033C88.9814 31.7377 88.5731 32.2767 88.0178 32.65C87.4624 33.0233 86.7928 33.21 86.0088 33.21ZM94.8924 33C94.4444 33.0887 94.0011 33.1237 93.5624 33.105C93.1284 33.091 92.7411 33.0047 92.4004 32.846C92.0597 32.6827 91.8007 32.4307 91.6234 32.09C91.4741 31.7913 91.3924 31.4903 91.3784 31.187C91.3691 30.879 91.3644 30.5313 91.3644 30.144V23.34H92.6104V30.088C92.6104 30.396 92.6127 30.6597 92.6174 30.879C92.6267 31.0983 92.6757 31.2873 92.7644 31.446C92.9324 31.7447 93.1984 31.9197 93.5624 31.971C93.9311 32.0223 94.3744 32.0083 94.8924 31.929V33ZM89.8314 26.469V25.44H94.8924V26.469H89.8314ZM99.4422 33.21C98.6909 33.21 98.0422 33.0397 97.4962 32.699C96.9549 32.3583 96.5372 31.887 96.2432 31.285C95.9492 30.683 95.8022 29.9923 95.8022 29.213C95.8022 28.4197 95.9515 27.7243 96.2502 27.127C96.5489 26.5297 96.9712 26.0653 97.5172 25.734C98.0632 25.398 98.7049 25.23 99.4422 25.23C100.198 25.23 100.849 25.4003 101.395 25.741C101.941 26.077 102.359 26.546 102.648 27.148C102.942 27.7453 103.089 28.4337 103.089 29.213C103.089 30.0017 102.942 30.697 102.648 31.299C102.354 31.8963 101.934 32.3653 101.388 32.706C100.842 33.042 100.194 33.21 99.4422 33.21ZM99.4422 32.027C100.226 32.027 100.81 31.7657 101.192 31.243C101.575 30.7203 101.766 30.0437 101.766 29.213C101.766 28.359 101.573 27.68 101.185 27.176C100.798 26.6673 100.217 26.413 99.4422 26.413C98.9149 26.413 98.4809 26.532 98.1402 26.77C97.7995 27.008 97.5452 27.337 97.3772 27.757C97.2092 28.177 97.1252 28.6623 97.1252 29.213C97.1252 30.0623 97.3212 30.7437 97.7132 31.257C98.1052 31.7703 98.6815 32.027 99.4422 32.027ZM104.63 33V25.44H105.743V27.267L105.561 27.029C105.65 26.7957 105.764 26.581 105.904 26.385C106.049 26.189 106.21 26.028 106.387 25.902C106.583 25.7433 106.805 25.622 107.052 25.538C107.3 25.454 107.552 25.405 107.808 25.391C108.065 25.3723 108.305 25.3887 108.529 25.44V26.609C108.268 26.539 107.981 26.5203 107.668 26.553C107.356 26.5857 107.066 26.7 106.8 26.896C106.558 27.0687 106.369 27.2787 106.233 27.526C106.103 27.7733 106.012 28.0417 105.96 28.331C105.909 28.6157 105.883 28.9073 105.883 29.206V33H104.63ZM108.592 34.568L108.669 33.987C108.865 34.001 109.012 33.9637 109.11 33.875C109.208 33.7863 109.271 33.665 109.299 33.511C109.327 33.357 109.332 33.1867 109.313 33H108.592V31.418H109.964V33.21C109.964 33.7 109.843 34.0687 109.6 34.316C109.362 34.5633 109.026 34.6473 108.592 34.568ZM124.468 33L124.475 28.163C124.475 27.5983 124.324 27.1573 124.02 26.84C123.722 26.518 123.332 26.357 122.851 26.357C122.571 26.357 122.305 26.4223 122.053 26.553C121.801 26.679 121.596 26.8797 121.437 27.155C121.279 27.4257 121.199 27.7733 121.199 28.198L120.541 27.932C120.532 27.3953 120.642 26.9263 120.87 26.525C121.104 26.119 121.421 25.804 121.822 25.58C122.224 25.356 122.676 25.244 123.18 25.244C123.969 25.244 124.59 25.4843 125.042 25.965C125.495 26.441 125.721 27.0827 125.721 27.89L125.714 33H124.468ZM115.424 33V25.44H116.537V27.463H116.677V33H115.424ZM119.953 33L119.96 28.212C119.96 27.6333 119.811 27.1807 119.512 26.854C119.214 26.5227 118.817 26.357 118.322 26.357C117.832 26.357 117.436 26.525 117.132 26.861C116.829 27.197 116.677 27.6427 116.677 28.198L116.019 27.806C116.019 27.316 116.136 26.8773 116.369 26.49C116.603 26.1027 116.92 25.7993 117.321 25.58C117.723 25.356 118.178 25.244 118.686 25.244C119.195 25.244 119.638 25.3513 120.016 25.566C120.394 25.7807 120.686 26.0887 120.891 26.49C121.097 26.8867 121.199 27.3603 121.199 27.911L121.192 33H119.953ZM130.82 33.21C130.078 33.21 129.43 33.0467 128.874 32.72C128.324 32.3887 127.894 31.929 127.586 31.341C127.278 30.7483 127.124 30.0577 127.124 29.269C127.124 28.443 127.276 27.729 127.579 27.127C127.883 26.5203 128.305 26.0537 128.846 25.727C129.392 25.3957 130.032 25.23 130.764 25.23C131.525 25.23 132.171 25.405 132.703 25.755C133.24 26.105 133.641 26.6043 133.907 27.253C134.178 27.9017 134.295 28.674 134.257 29.57H132.997V29.122C132.983 28.1933 132.794 27.5003 132.43 27.043C132.066 26.581 131.525 26.35 130.806 26.35C130.036 26.35 129.451 26.5973 129.049 27.092C128.648 27.5867 128.447 28.296 128.447 29.22C128.447 30.1113 128.648 30.802 129.049 31.292C129.451 31.782 130.022 32.027 130.764 32.027C131.264 32.027 131.698 31.9127 132.066 31.684C132.435 31.4553 132.724 31.1263 132.934 30.697L134.131 31.11C133.837 31.7773 133.394 32.2953 132.801 32.664C132.213 33.028 131.553 33.21 130.82 33.21ZM128.027 29.57V28.569H133.613V29.57H128.027ZM138.784 33.21C138.079 33.21 137.475 33.035 136.971 32.685C136.467 32.3303 136.077 31.852 135.802 31.25C135.531 30.648 135.396 29.969 135.396 29.213C135.396 28.457 135.531 27.778 135.802 27.176C136.077 26.574 136.467 26.1003 136.971 25.755C137.475 25.405 138.077 25.23 138.777 25.23C139.491 25.23 140.091 25.4027 140.576 25.748C141.061 26.0933 141.428 26.567 141.675 27.169C141.927 27.771 142.053 28.4523 142.053 29.213C142.053 29.9643 141.927 30.6433 141.675 31.25C141.428 31.852 141.061 32.3303 140.576 32.685C140.091 33.035 139.493 33.21 138.784 33.21ZM138.938 32.069C139.447 32.069 139.864 31.9477 140.191 31.705C140.518 31.4577 140.758 31.1193 140.912 30.69C141.071 30.256 141.15 29.7637 141.15 29.213C141.15 28.653 141.071 28.1607 140.912 27.736C140.758 27.3067 140.52 26.973 140.198 26.735C139.876 26.4923 139.468 26.371 138.973 26.371C138.46 26.371 138.035 26.497 137.699 26.749C137.368 27.001 137.12 27.3417 136.957 27.771C136.798 28.2003 136.719 28.681 136.719 29.213C136.719 29.7497 136.801 30.235 136.964 30.669C137.127 31.0983 137.372 31.439 137.699 31.691C138.03 31.943 138.443 32.069 138.938 32.069ZM141.15 33V27.435H141.01V22.92H142.263V33H141.15ZM144.364 24.103V22.815H145.61V24.103H144.364ZM144.364 33V25.44H145.61V33H144.364ZM150.895 33.21C150.13 33.21 149.479 33.0397 148.942 32.699C148.41 32.3537 148.004 31.88 147.724 31.278C147.444 30.676 147.3 29.99 147.29 29.22C147.3 28.4313 147.447 27.7383 147.731 27.141C148.021 26.539 148.434 26.07 148.97 25.734C149.507 25.398 150.153 25.23 150.909 25.23C151.707 25.23 152.393 25.426 152.967 25.818C153.546 26.21 153.933 26.7467 154.129 27.428L152.897 27.799C152.739 27.3603 152.48 27.0197 152.12 26.777C151.766 26.5343 151.357 26.413 150.895 26.413C150.377 26.413 149.95 26.5343 149.614 26.777C149.278 27.015 149.029 27.3463 148.865 27.771C148.702 28.191 148.618 28.674 148.613 29.22C148.623 30.06 148.816 30.739 149.194 31.257C149.577 31.7703 150.144 32.027 150.895 32.027C151.39 32.027 151.801 31.915 152.127 31.691C152.454 31.4623 152.701 31.1333 152.869 30.704L154.129 31.033C153.868 31.7377 153.46 32.2767 152.904 32.65C152.349 33.0233 151.679 33.21 150.895 33.21ZM155.493 24.103V22.815H156.739V24.103H155.493ZM155.493 33V25.44H156.739V33H155.493ZM164.222 33V29.213C164.222 28.8537 164.19 28.5083 164.124 28.177C164.064 27.8457 163.954 27.5493 163.795 27.288C163.641 27.022 163.431 26.812 163.165 26.658C162.904 26.504 162.573 26.427 162.171 26.427C161.859 26.427 161.574 26.4807 161.317 26.588C161.065 26.6907 160.848 26.8493 160.666 27.064C160.484 27.2787 160.342 27.5493 160.239 27.876C160.141 28.198 160.092 28.5783 160.092 29.017L159.273 28.765C159.273 28.0323 159.404 27.4047 159.665 26.882C159.931 26.3547 160.302 25.951 160.778 25.671C161.259 25.3863 161.824 25.244 162.472 25.244C162.962 25.244 163.38 25.321 163.725 25.475C164.071 25.629 164.358 25.8343 164.586 26.091C164.815 26.343 164.995 26.6277 165.125 26.945C165.256 27.2577 165.347 27.5773 165.398 27.904C165.454 28.226 165.482 28.5317 165.482 28.821V33H164.222ZM158.832 33V25.44H159.952V27.463H160.092V33H158.832ZM170.578 33.21C169.836 33.21 169.188 33.0467 168.632 32.72C168.082 32.3887 167.652 31.929 167.344 31.341C167.036 30.7483 166.882 30.0577 166.882 29.269C166.882 28.443 167.034 27.729 167.337 27.127C167.641 26.5203 168.063 26.0537 168.604 25.727C169.15 25.3957 169.79 25.23 170.522 25.23C171.283 25.23 171.929 25.405 172.461 25.755C172.998 26.105 173.399 26.6043 173.665 27.253C173.936 27.9017 174.053 28.674 174.015 29.57H172.755V29.122C172.741 28.1933 172.552 27.5003 172.188 27.043C171.824 26.581 171.283 26.35 170.564 26.35C169.794 26.35 169.209 26.5973 168.807 27.092C168.406 27.5867 168.205 28.296 168.205 29.22C168.205 30.1113 168.406 30.802 168.807 31.292C169.209 31.782 169.78 32.027 170.522 32.027C171.022 32.027 171.456 31.9127 171.824 31.684C172.193 31.4553 172.482 31.1263 172.692 30.697L173.889 31.11C173.595 31.7773 173.152 32.2953 172.559 32.664C171.971 33.028 171.311 33.21 170.578 33.21ZM167.785 29.57V28.569H173.371V29.57H167.785ZM178.43 33.203C177.529 33.203 176.789 33.007 176.211 32.615C175.637 32.2183 175.284 31.6653 175.154 30.956L176.428 30.753C176.53 31.1637 176.766 31.4903 177.135 31.733C177.503 31.971 177.961 32.09 178.507 32.09C179.025 32.09 179.431 31.9827 179.725 31.768C180.019 31.5533 180.166 31.2617 180.166 30.893C180.166 30.6783 180.117 30.5057 180.019 30.375C179.921 30.2397 179.718 30.1137 179.41 29.997C179.106 29.8803 178.647 29.7403 178.031 29.577C177.363 29.3997 176.838 29.2153 176.456 29.024C176.073 28.8327 175.8 28.611 175.637 28.359C175.473 28.107 175.392 27.8013 175.392 27.442C175.392 26.9987 175.513 26.6113 175.756 26.28C175.998 25.944 176.337 25.685 176.771 25.503C177.209 25.321 177.718 25.23 178.297 25.23C178.871 25.23 179.384 25.321 179.837 25.503C180.289 25.685 180.653 25.944 180.929 26.28C181.209 26.6113 181.374 26.9987 181.426 27.442L180.152 27.673C180.091 27.267 179.895 26.9473 179.564 26.714C179.237 26.4807 178.815 26.357 178.297 26.343C177.807 26.3243 177.408 26.4107 177.1 26.602C176.796 26.7933 176.645 27.0523 176.645 27.379C176.645 27.561 176.701 27.7173 176.813 27.848C176.929 27.9787 177.142 28.1023 177.45 28.219C177.762 28.3357 178.215 28.4687 178.808 28.618C179.475 28.786 180 28.9703 180.383 29.171C180.77 29.367 181.045 29.6003 181.209 29.871C181.372 30.137 181.454 30.466 181.454 30.858C181.454 31.586 181.185 32.16 180.649 32.58C180.112 32.9953 179.372 33.203 178.43 33.203ZM189.076 33.21C188.334 33.21 187.686 33.0467 187.13 32.72C186.58 32.3887 186.15 31.929 185.842 31.341C185.534 30.7483 185.38 30.0577 185.38 29.269C185.38 28.443 185.532 27.729 185.835 27.127C186.139 26.5203 186.561 26.0537 187.102 25.727C187.648 25.3957 188.288 25.23 189.02 25.23C189.781 25.23 190.427 25.405 190.959 25.755C191.496 26.105 191.897 26.6043 192.163 27.253C192.434 27.9017 192.551 28.674 192.513 29.57H191.253V29.122C191.239 28.1933 191.05 27.5003 190.686 27.043C190.322 26.581 189.781 26.35 189.062 26.35C188.292 26.35 187.707 26.5973 187.305 27.092C186.904 27.5867 186.703 28.296 186.703 29.22C186.703 30.1113 186.904 30.802 187.305 31.292C187.707 31.782 188.278 32.027 189.02 32.027C189.52 32.027 189.954 31.9127 190.322 31.684C190.691 31.4553 190.98 31.1263 191.19 30.697L192.387 31.11C192.093 31.7773 191.65 32.2953 191.057 32.664C190.469 33.028 189.809 33.21 189.076 33.21ZM186.283 29.57V28.569H191.869V29.57H186.283ZM198.293 33C197.845 33.0887 197.401 33.1237 196.963 33.105C196.529 33.091 196.141 33.0047 195.801 32.846C195.46 32.6827 195.201 32.4307 195.024 32.09C194.874 31.7913 194.793 31.4903 194.779 31.187C194.769 30.879 194.765 30.5313 194.765 30.144V23.34H196.011V30.088C196.011 30.396 196.013 30.6597 196.018 30.879C196.027 31.0983 196.076 31.2873 196.165 31.446C196.333 31.7447 196.599 31.9197 196.963 31.971C197.331 32.0223 197.775 32.0083 198.293 31.929V33ZM193.232 26.469V25.44H198.293V26.469H193.232ZM202.808 33.21C202.042 33.21 201.391 33.0397 200.855 32.699C200.323 32.3537 199.917 31.88 199.637 31.278C199.357 30.676 199.212 29.99 199.203 29.22C199.212 28.4313 199.359 27.7383 199.644 27.141C199.933 26.539 200.346 26.07 200.883 25.734C201.419 25.398 202.066 25.23 202.822 25.23C203.62 25.23 204.306 25.426 204.88 25.818C205.458 26.21 205.846 26.7467 206.042 27.428L204.81 27.799C204.651 27.3603 204.392 27.0197 204.033 26.777C203.678 26.5343 203.27 26.413 202.808 26.413C202.29 26.413 201.863 26.5343 201.527 26.777C201.191 27.015 200.941 27.3463 200.778 27.771C200.614 28.191 200.53 28.674 200.526 29.22C200.535 30.06 200.729 30.739 201.107 31.257C201.489 31.7703 202.056 32.027 202.808 32.027C203.302 32.027 203.713 31.915 204.04 31.691C204.366 31.4623 204.614 31.1333 204.782 30.704L206.042 31.033C205.78 31.7377 205.372 32.2767 204.817 32.65C204.261 33.0233 203.592 33.21 202.808 33.21Z" fill="#CACCCF"/>
<defs>
<clipPath id="clip0_0_49">
<rect width="24" height="24" fill="white" transform="translate(279 16)"/>
</clipPath>
</defs>
</svg>
