<svg width="324" height="80" viewBox="0 0 324 80" fill="none" xmlns="http://www.w3.org/2000/svg">
<g filter="url(#filter0_d_0_222)">
<rect x="8" y="10" width="312" height="60" rx="20" fill="#242424"/>
<g filter="url(#filter1_d_0_222)">
<rect x="8" y="10" width="79" height="60" rx="20" fill="#62C6FF"/>
</g>
<path d="M122.715 46V33.04H124.596V44.227H130.464V46H122.715ZM136.303 46.27C135.337 46.27 134.488 46.06 133.756 45.64C133.03 45.214 132.463 44.623 132.055 43.867C131.653 43.105 131.452 42.223 131.452 41.221C131.452 40.159 131.65 39.238 132.046 38.458C132.448 37.678 133.006 37.075 133.72 36.649C134.434 36.223 135.265 36.01 136.213 36.01C137.203 36.01 138.046 36.241 138.742 36.703C139.438 37.159 139.957 37.81 140.299 38.656C140.647 39.502 140.785 40.507 140.713 41.671H138.832V40.987C138.82 39.859 138.604 39.025 138.184 38.485C137.77 37.945 137.137 37.675 136.285 37.675C135.343 37.675 134.635 37.972 134.161 38.566C133.687 39.16 133.45 40.018 133.45 41.14C133.45 42.208 133.687 43.036 134.161 43.624C134.635 44.206 135.319 44.497 136.213 44.497C136.801 44.497 137.308 44.365 137.734 44.101C138.166 43.831 138.502 43.447 138.742 42.949L140.587 43.534C140.209 44.404 139.636 45.079 138.868 45.559C138.1 46.033 137.245 46.27 136.303 46.27ZM132.838 41.671V40.204H139.777V41.671H132.838ZM148.295 46C147.683 46.12 147.083 46.171 146.495 46.153C145.907 46.135 145.382 46.021 144.92 45.811C144.458 45.601 144.11 45.271 143.876 44.821C143.666 44.419 143.552 44.011 143.534 43.597C143.522 43.177 143.516 42.703 143.516 42.175V33.58H145.406V42.085C145.406 42.475 145.409 42.814 145.415 43.102C145.427 43.39 145.49 43.633 145.604 43.831C145.82 44.203 146.162 44.416 146.63 44.47C147.104 44.518 147.659 44.497 148.295 44.407V46ZM141.653 37.792V36.28H148.295V37.792H141.653ZM150.524 37.36L150.641 36.523C150.899 36.541 151.1 36.493 151.244 36.379C151.388 36.265 151.484 36.106 151.532 35.902C151.58 35.698 151.589 35.467 151.559 35.209H150.524V33.04H152.513V35.389C152.513 36.097 152.342 36.631 152 36.991C151.664 37.351 151.172 37.474 150.524 37.36ZM157.366 46.261C156.184 46.261 155.221 46 154.477 45.478C153.733 44.956 153.277 44.221 153.109 43.273L155.035 42.976C155.155 43.48 155.431 43.879 155.863 44.173C156.301 44.461 156.844 44.605 157.492 44.605C158.08 44.605 158.539 44.485 158.869 44.245C159.205 44.005 159.373 43.675 159.373 43.255C159.373 43.009 159.313 42.811 159.193 42.661C159.079 42.505 158.836 42.358 158.464 42.22C158.092 42.082 157.525 41.911 156.763 41.707C155.929 41.491 155.266 41.26 154.774 41.014C154.288 40.762 153.94 40.471 153.73 40.141C153.526 39.805 153.424 39.4 153.424 38.926C153.424 38.338 153.58 37.825 153.892 37.387C154.204 36.949 154.642 36.61 155.206 36.37C155.776 36.13 156.442 36.01 157.204 36.01C157.948 36.01 158.611 36.127 159.193 36.361C159.775 36.595 160.246 36.928 160.606 37.36C160.966 37.786 161.182 38.287 161.254 38.863L159.328 39.214C159.262 38.746 159.043 38.377 158.671 38.107C158.299 37.837 157.816 37.69 157.222 37.666C156.652 37.642 156.19 37.738 155.836 37.954C155.482 38.164 155.305 38.455 155.305 38.827C155.305 39.043 155.371 39.226 155.503 39.376C155.641 39.526 155.905 39.67 156.295 39.808C156.685 39.946 157.261 40.111 158.023 40.303C158.839 40.513 159.487 40.747 159.967 41.005C160.447 41.257 160.789 41.56 160.993 41.914C161.203 42.262 161.308 42.685 161.308 43.183C161.308 44.143 160.957 44.896 160.255 45.442C159.559 45.988 158.596 46.261 157.366 46.261ZM170.62 46.261C169.438 46.261 168.475 46 167.731 45.478C166.987 44.956 166.531 44.221 166.363 43.273L168.289 42.976C168.409 43.48 168.685 43.879 169.117 44.173C169.555 44.461 170.098 44.605 170.746 44.605C171.334 44.605 171.793 44.485 172.123 44.245C172.459 44.005 172.627 43.675 172.627 43.255C172.627 43.009 172.567 42.811 172.447 42.661C172.333 42.505 172.09 42.358 171.718 42.22C171.346 42.082 170.779 41.911 170.017 41.707C169.183 41.491 168.52 41.26 168.028 41.014C167.542 40.762 167.194 40.471 166.984 40.141C166.78 39.805 166.678 39.4 166.678 38.926C166.678 38.338 166.834 37.825 167.146 37.387C167.458 36.949 167.896 36.61 168.46 36.37C169.03 36.13 169.696 36.01 170.458 36.01C171.202 36.01 171.865 36.127 172.447 36.361C173.029 36.595 173.5 36.928 173.86 37.36C174.22 37.786 174.436 38.287 174.508 38.863L172.582 39.214C172.516 38.746 172.297 38.377 171.925 38.107C171.553 37.837 171.07 37.69 170.476 37.666C169.906 37.642 169.444 37.738 169.09 37.954C168.736 38.164 168.559 38.455 168.559 38.827C168.559 39.043 168.625 39.226 168.757 39.376C168.895 39.526 169.159 39.67 169.549 39.808C169.939 39.946 170.515 40.111 171.277 40.303C172.093 40.513 172.741 40.747 173.221 41.005C173.701 41.257 174.043 41.56 174.247 41.914C174.457 42.262 174.562 42.685 174.562 43.183C174.562 44.143 174.211 44.896 173.509 45.442C172.813 45.988 171.85 46.261 170.62 46.261ZM182.115 46C181.503 46.12 180.903 46.171 180.315 46.153C179.727 46.135 179.202 46.021 178.74 45.811C178.278 45.601 177.93 45.271 177.696 44.821C177.486 44.419 177.372 44.011 177.354 43.597C177.342 43.177 177.336 42.703 177.336 42.175V33.58H179.226V42.085C179.226 42.475 179.229 42.814 179.235 43.102C179.247 43.39 179.31 43.633 179.424 43.831C179.64 44.203 179.982 44.416 180.45 44.47C180.924 44.518 181.479 44.497 182.115 44.407V46ZM175.473 37.792V36.28H182.115V37.792H175.473ZM186.909 46.27C186.189 46.27 185.586 46.138 185.1 45.874C184.614 45.604 184.245 45.25 183.993 44.812C183.747 44.368 183.624 43.882 183.624 43.354C183.624 42.862 183.711 42.43 183.885 42.058C184.059 41.686 184.317 41.371 184.659 41.113C185.001 40.849 185.421 40.636 185.919 40.474C186.351 40.348 186.84 40.237 187.386 40.141C187.932 40.045 188.505 39.955 189.105 39.871C189.711 39.787 190.311 39.703 190.905 39.619L190.221 39.997C190.233 39.235 190.071 38.671 189.735 38.305C189.405 37.933 188.835 37.747 188.025 37.747C187.515 37.747 187.047 37.867 186.621 38.107C186.195 38.341 185.898 38.731 185.73 39.277L183.975 38.737C184.215 37.903 184.671 37.24 185.343 36.748C186.021 36.256 186.921 36.01 188.043 36.01C188.913 36.01 189.669 36.16 190.311 36.46C190.959 36.754 191.433 37.222 191.733 37.864C191.889 38.182 191.985 38.518 192.021 38.872C192.057 39.226 192.075 39.607 192.075 40.015V46H190.41V43.777L190.734 44.065C190.332 44.809 189.819 45.364 189.195 45.73C188.577 46.09 187.815 46.27 186.909 46.27ZM187.242 44.731C187.776 44.731 188.235 44.638 188.619 44.452C189.003 44.26 189.312 44.017 189.546 43.723C189.78 43.429 189.933 43.123 190.005 42.805C190.107 42.517 190.164 42.193 190.176 41.833C190.194 41.473 190.203 41.185 190.203 40.969L190.815 41.194C190.221 41.284 189.681 41.365 189.195 41.437C188.709 41.509 188.268 41.581 187.872 41.653C187.482 41.719 187.134 41.8 186.828 41.896C186.57 41.986 186.339 42.094 186.135 42.22C185.937 42.346 185.778 42.499 185.658 42.679C185.544 42.859 185.487 43.078 185.487 43.336C185.487 43.588 185.55 43.822 185.676 44.038C185.802 44.248 185.994 44.416 186.252 44.542C186.51 44.668 186.84 44.731 187.242 44.731ZM194.412 46V36.28H196.086V38.638L195.852 38.332C195.972 38.02 196.128 37.735 196.32 37.477C196.512 37.213 196.734 36.997 196.986 36.829C197.232 36.649 197.505 36.511 197.805 36.415C198.111 36.313 198.423 36.253 198.741 36.235C199.059 36.211 199.365 36.226 199.659 36.28V38.044C199.341 37.96 198.987 37.936 198.597 37.972C198.213 38.008 197.859 38.131 197.535 38.341C197.229 38.539 196.986 38.779 196.806 39.061C196.632 39.343 196.506 39.658 196.428 40.006C196.35 40.348 196.311 40.711 196.311 41.095V46H194.412ZM206.935 46C206.323 46.12 205.723 46.171 205.135 46.153C204.547 46.135 204.022 46.021 203.56 45.811C203.098 45.601 202.75 45.271 202.516 44.821C202.306 44.419 202.192 44.011 202.174 43.597C202.162 43.177 202.156 42.703 202.156 42.175V33.58H204.046V42.085C204.046 42.475 204.049 42.814 204.055 43.102C204.067 43.39 204.13 43.633 204.244 43.831C204.46 44.203 204.802 44.416 205.27 44.47C205.744 44.518 206.299 44.497 206.935 44.407V46ZM200.293 37.792V36.28H206.935V37.792H200.293Z" fill="white"/>
<path d="M32 33L39 40L32 47" stroke="white" stroke-width="2" stroke-linecap="round" stroke-linejoin="round"/>
<path d="M44 33L51 40L44 47" stroke="#E1E1E1" stroke-width="2" stroke-linecap="round" stroke-linejoin="round"/>
<path d="M56 33L63 40L56 47" stroke="#D5D5D5" stroke-width="2" stroke-linecap="round" stroke-linejoin="round"/>
</g>
<defs>
<filter id="filter0_d_0_222" x="4" y="10" width="320" height="68" filterUnits="userSpaceOnUse" color-interpolation-filters="sRGB">
<feFlood flood-opacity="0" result="BackgroundImageFix"/>
<feColorMatrix in="SourceAlpha" type="matrix" values="0 0 0 0 0 0 0 0 0 0 0 0 0 0 0 0 0 0 127 0" result="hardAlpha"/>
<feOffset dy="4"/>
<feGaussianBlur stdDeviation="2"/>
<feComposite in2="hardAlpha" operator="out"/>
<feColorMatrix type="matrix" values="0 0 0 0 0 0 0 0 0 0 0 0 0 0 0 0 0 0 0.25 0"/>
<feBlend mode="normal" in2="BackgroundImageFix" result="effect1_dropShadow_0_222"/>
<feBlend mode="normal" in="SourceGraphic" in2="effect1_dropShadow_0_222" result="shape"/>
</filter>
<filter id="filter1_d_0_222" x="0" y="0" width="99" height="80" filterUnits="userSpaceOnUse" color-interpolation-filters="sRGB">
<feFlood flood-opacity="0" result="BackgroundImageFix"/>
<feColorMatrix in="SourceAlpha" type="matrix" values="0 0 0 0 0 0 0 0 0 0 0 0 0 0 0 0 0 0 127 0" result="hardAlpha"/>
<feOffset dx="2"/>
<feGaussianBlur stdDeviation="5"/>
<feComposite in2="hardAlpha" operator="out"/>
<feColorMatrix type="matrix" values="0 0 0 0 0 0 0 0 0 0 0 0 0 0 0 0 0 0 0.2 0"/>
<feBlend mode="normal" in2="BackgroundImageFix" result="effect1_dropShadow_0_222"/>
<feBlend mode="normal" in="SourceGraphic" in2="effect1_dropShadow_0_222" result="shape"/>
</filter>
</defs>
</svg>
