<svg width="196" height="177" viewBox="0 0 196 177" fill="none" xmlns="http://www.w3.org/2000/svg">
<rect x="40" y="40" width="156" height="137" rx="18" fill="#FFEFCF"/>
<rect x="40" y="40" width="156" height="137" rx="18" fill="#FF7854"/>
<g filter="url(#filter0_f_0_80)">
<circle cx="58" cy="58" r="28" fill="white" fill-opacity="0.5"/>
</g>
<rect x="92" y="64" width="51" height="51" rx="12" fill="white"/>
<g clip-path="url(#clip0_0_80)">
<path d="M111.657 78.9602C111.371 78.5447 110.803 78.4397 110.388 78.7253C109.756 79.16 109.258 79.6251 108.867 80.1465C108.568 80.5452 108.644 81.1104 109.038 81.4155C109.204 81.5442 109.401 81.6065 109.597 81.6065C109.865 81.6065 110.13 81.4891 110.31 81.264C110.619 80.8771 111.014 80.5097 111.422 80.2292C111.68 80.0522 111.818 79.7662 111.818 79.4757C111.818 79.2978 111.765 79.118 111.657 78.9602Z" fill="black"/>
<path d="M127.351 82.1586C126.749 80.21 125.353 78.7228 123.628 78.1835C121.399 77.4602 119.444 77.9235 118.07 78.5452C116.988 77.8677 115.696 77.5 114.373 77.5C112.932 77.5 111.554 77.9237 110.388 78.7253C109.837 79.1046 109.323 79.58 108.902 80.102C108.853 80.158 108.817 80.2121 108.79 80.2592C107.805 81.549 107.285 83.0763 107.285 84.6787C107.285 86.3885 107.891 88.0418 108.993 89.3394C109.02 89.3796 109.051 89.4225 109.082 89.466C109.114 89.5113 109.147 89.556 109.172 89.5949C109.182 89.6089 109.192 89.6226 109.202 89.636C109.613 90.1844 110.021 92.2781 110.195 93.1721C110.241 93.4082 110.282 93.6156 110.315 93.7698C110.401 94.2017 110.489 94.6687 110.546 95.1553C110.737 96.8143 111.057 98.1701 111.492 99.1733C112.097 100.625 112.949 101.407 114.023 101.496C114.049 101.498 114.074 101.5 114.099 101.5H114.221C115.553 101.5 116.294 99.9669 116.842 98.4672C116.847 98.4544 116.851 98.442 116.855 98.4292L117.606 96.0609L118.338 98.4237C118.343 98.4383 118.347 98.4529 118.353 98.4675C118.869 99.8793 119.634 101.5 120.974 101.5H121.096C121.122 101.5 121.148 101.499 121.174 101.497C121.913 101.432 122.951 100.977 123.701 99.1761C124.109 98.2024 124.41 96.9303 124.648 95.1581C124.706 94.6684 124.793 94.2021 124.878 93.7808C124.912 93.6166 124.953 93.4097 124.999 93.1742C125.173 92.2796 125.581 90.1854 125.996 89.6318C127.632 87.417 128.137 84.62 127.351 82.1586ZM124.532 88.5415C123.921 89.3576 123.556 91.033 123.207 92.8247C123.164 93.0489 123.125 93.2457 123.09 93.4118C122.996 93.8802 122.901 94.3903 122.837 94.9296C122.623 96.5236 122.363 97.6484 122.017 98.4722C121.723 99.1785 121.361 99.6241 121.044 99.6749H121.042C120.944 99.5997 120.584 99.2484 120.074 97.8617L118.743 93.5645C118.738 93.5475 118.732 93.5307 118.726 93.5143C118.549 93.0434 118.112 92.7395 117.612 92.7395C117.113 92.7395 116.676 93.0434 116.499 93.5143C116.494 93.5286 116.489 93.5435 116.484 93.5587L115.121 97.8589C114.599 99.2813 114.259 99.6073 114.165 99.6749H114.147C113.713 99.6107 113.354 98.8974 113.172 98.46C112.808 97.6217 112.527 96.4067 112.359 94.9445C112.294 94.3918 112.198 93.8814 112.102 93.402C112.069 93.2457 112.03 93.0482 111.986 92.8234C111.641 91.0479 111.28 89.3862 110.678 88.5631C110.645 88.5144 110.606 88.4603 110.567 88.4058C110.535 88.3611 110.503 88.3167 110.478 88.2783C110.457 88.2473 110.435 88.2178 110.41 88.1895C109.572 87.2161 109.11 85.9693 109.11 84.6786C109.11 83.4795 109.501 82.3349 110.241 81.3658C110.283 81.3162 110.315 81.2687 110.34 81.2265C110.645 80.8535 111.027 80.5004 111.422 80.2291C112.282 79.6377 113.303 79.325 114.373 79.325C115.499 79.325 116.589 79.6806 117.441 80.3258C117.725 80.5405 118.107 80.571 118.419 80.4049C119.485 79.8412 121.155 79.2995 123.074 79.9218C124.253 80.2905 125.176 81.3016 125.61 82.7051C126.221 84.6185 125.817 86.8022 124.532 88.5415Z" fill="#FF7854"/>
</g>
<path d="M93.4638 148V136.48H97.0718C97.1784 136.48 97.3758 136.483 97.6638 136.488C97.9571 136.493 98.2371 136.515 98.5038 136.552C99.4051 136.664 100.162 136.987 100.776 137.52C101.394 138.053 101.861 138.731 102.176 139.552C102.49 140.368 102.648 141.264 102.648 142.24C102.648 143.221 102.49 144.123 102.176 144.944C101.861 145.76 101.394 146.435 100.776 146.968C100.162 147.496 99.4051 147.816 98.5038 147.928C98.2371 147.965 97.9571 147.987 97.6638 147.992C97.3758 147.997 97.1784 148 97.0718 148H93.4638ZM95.1758 146.408H97.0718C97.2531 146.408 97.4691 146.403 97.7198 146.392C97.9704 146.381 98.1918 146.36 98.3838 146.328C98.9704 146.216 99.4451 145.963 99.8078 145.568C100.176 145.168 100.445 144.677 100.616 144.096C100.786 143.515 100.872 142.896 100.872 142.24C100.872 141.563 100.784 140.936 100.608 140.36C100.432 139.779 100.16 139.293 99.7918 138.904C99.4291 138.509 98.9598 138.259 98.3838 138.152C98.1918 138.115 97.9678 138.093 97.7118 138.088C97.4611 138.077 97.2478 138.072 97.0718 138.072H95.1758V146.408ZM108.343 148.24C107.484 148.24 106.729 148.053 106.079 147.68C105.433 147.301 104.929 146.776 104.567 146.104C104.209 145.427 104.031 144.643 104.031 143.752C104.031 142.808 104.207 141.989 104.559 141.296C104.916 140.603 105.412 140.067 106.047 139.688C106.681 139.309 107.42 139.12 108.263 139.12C109.143 139.12 109.892 139.325 110.511 139.736C111.129 140.141 111.591 140.72 111.895 141.472C112.204 142.224 112.327 143.117 112.263 144.152H110.591V143.544C110.58 142.541 110.388 141.8 110.015 141.32C109.647 140.84 109.084 140.6 108.327 140.6C107.489 140.6 106.86 140.864 106.439 141.392C106.017 141.92 105.807 142.683 105.807 143.68C105.807 144.629 106.017 145.365 106.439 145.888C106.86 146.405 107.468 146.664 108.263 146.664C108.785 146.664 109.236 146.547 109.615 146.312C109.999 146.072 110.297 145.731 110.511 145.288L112.151 145.808C111.815 146.581 111.305 147.181 110.623 147.608C109.94 148.029 109.18 148.24 108.343 148.24ZM105.263 144.152V142.848H111.431V144.152H105.263ZM119.887 148V143.752C119.887 143.416 119.858 143.072 119.799 142.72C119.746 142.363 119.639 142.032 119.479 141.728C119.324 141.424 119.103 141.179 118.815 140.992C118.532 140.805 118.162 140.712 117.703 140.712C117.404 140.712 117.122 140.763 116.855 140.864C116.588 140.96 116.354 141.117 116.151 141.336C115.954 141.555 115.796 141.843 115.679 142.2C115.567 142.557 115.511 142.992 115.511 143.504L114.471 143.112C114.471 142.328 114.618 141.637 114.911 141.04C115.204 140.437 115.626 139.968 116.175 139.632C116.724 139.296 117.388 139.128 118.167 139.128C118.764 139.128 119.266 139.224 119.671 139.416C120.076 139.608 120.404 139.861 120.655 140.176C120.911 140.485 121.106 140.824 121.239 141.192C121.372 141.56 121.463 141.92 121.511 142.272C121.559 142.624 121.583 142.933 121.583 143.2V148H119.887ZM113.815 148V139.36H115.311V141.856H115.511V148H113.815ZM128.611 148C128.067 148.107 127.534 148.152 127.011 148.136C126.488 148.12 126.022 148.019 125.611 147.832C125.2 147.645 124.891 147.352 124.683 146.952C124.496 146.595 124.395 146.232 124.379 145.864C124.368 145.491 124.363 145.069 124.363 144.6V136.96H126.043V144.52C126.043 144.867 126.046 145.168 126.051 145.424C126.062 145.68 126.118 145.896 126.219 146.072C126.411 146.403 126.715 146.592 127.131 146.64C127.552 146.683 128.046 146.664 128.611 146.584V148ZM122.707 140.704V139.36H128.611V140.704H122.707ZM132.873 148.24C132.233 148.24 131.697 148.123 131.265 147.888C130.833 147.648 130.505 147.333 130.281 146.944C130.062 146.549 129.953 146.117 129.953 145.648C129.953 145.211 130.03 144.827 130.185 144.496C130.339 144.165 130.569 143.885 130.873 143.656C131.177 143.421 131.55 143.232 131.993 143.088C132.377 142.976 132.811 142.877 133.297 142.792C133.782 142.707 134.291 142.627 134.825 142.552C135.363 142.477 135.897 142.403 136.425 142.328L135.817 142.664C135.827 141.987 135.683 141.485 135.385 141.16C135.091 140.829 134.585 140.664 133.865 140.664C133.411 140.664 132.995 140.771 132.617 140.984C132.238 141.192 131.974 141.539 131.825 142.024L130.265 141.544C130.478 140.803 130.883 140.213 131.481 139.776C132.083 139.339 132.883 139.12 133.881 139.12C134.654 139.12 135.326 139.253 135.897 139.52C136.473 139.781 136.894 140.197 137.161 140.768C137.299 141.051 137.385 141.349 137.417 141.664C137.449 141.979 137.465 142.317 137.465 142.68V148H135.985V146.024L136.273 146.28C135.915 146.941 135.459 147.435 134.905 147.76C134.355 148.08 133.678 148.24 132.873 148.24ZM133.169 146.872C133.643 146.872 134.051 146.789 134.393 146.624C134.734 146.453 135.009 146.237 135.217 145.976C135.425 145.715 135.561 145.443 135.625 145.16C135.715 144.904 135.766 144.616 135.777 144.296C135.793 143.976 135.801 143.72 135.801 143.528L136.345 143.728C135.817 143.808 135.337 143.88 134.905 143.944C134.473 144.008 134.081 144.072 133.729 144.136C133.382 144.195 133.073 144.267 132.801 144.352C132.571 144.432 132.366 144.528 132.185 144.64C132.009 144.752 131.867 144.888 131.761 145.048C131.659 145.208 131.609 145.403 131.609 145.632C131.609 145.856 131.665 146.064 131.777 146.256C131.889 146.443 132.059 146.592 132.289 146.704C132.518 146.816 132.811 146.872 133.169 146.872ZM139.702 148V136.24H141.374V148H139.702Z" fill="white"/>
<defs>
<filter id="filter0_f_0_80" x="0" y="0" width="116" height="116" filterUnits="userSpaceOnUse" color-interpolation-filters="sRGB">
<feFlood flood-opacity="0" result="BackgroundImageFix"/>
<feBlend mode="normal" in="SourceGraphic" in2="BackgroundImageFix" result="shape"/>
<feGaussianBlur stdDeviation="15" result="effect1_foregroundBlur_0_80"/>
</filter>
<clipPath id="clip0_0_80">
<rect width="24" height="24" fill="white" transform="translate(105.5 77.5)"/>
</clipPath>
</defs>
</svg>
